# xmcd
# Track frame offsets:
# 150
# 13355
# 33863
# 45991
# 55896
# 68708
# 83132
# 96870
# 109186
# 119950
# 131942
# 142294
# 160237
# 170344
# 182638
# 193550
# 203603
# 215435
# 224966
# 241610
# 252332
# 273636
#
# Disc length: 3819 seconds
# Revision: 0
# Processed by: cddbd v1.5.1PL0 Copyright (c) Steve Scherf et al.
# Submitted via: VisiTrax 2.9.10.220 - For more info visit www.synapsa.com
#
DISCID=540ee916
DTITLE=Philomena Begley - Red Is The Rose - CD2
DYEAR=2004
DGENRE=Country
TTITLE0=What's Wrong With The Way We Are Doing It Now
TTITLE1=Red Is The Rose
TTITLE2=Fallin' For You
TTITLE3=Daydreams About Night Things
TTITLE4=I Don't Feel Like A Movie Tonight
TTITLE5=The Woman In the Moon
TTITLE6=Just Because I Am A Woman
TTITLE7=I Fall To Pieces
TTITLE8=The Triangle Song
TTITLE9=The Umbrella Song
TTITLE10=Country I'm A Coming
TTITLE11=Storms Never Last
TTITLE12=I Burnt The Little Riverside Tavern Down
TTITLE13=It's A Long Way From Heaven
TTITLE14=The Nitro Express
TTITLE15=Mexico
TTITLE16=Hold On Woman
TTITLE17=Wait A Little Longer Please Jesus
TTITLE18=Only Yesterday
TTITLE19=Ravishing Ruby
TTITLE20=Isle Of Innisfree
TTITLE21=Why Me Lord
EXTD=
EXTT0=
EXTT1=
EXTT2=
EXTT3=
EXTT4=
EXTT5=
EXTT6=
EXTT7=
EXTT8=
EXTT9=
EXTT10=
EXTT11=
EXTT12=
EXTT13=
EXTT14=
EXTT15=
EXTT16=
EXTT17=
EXTT18=
EXTT19=
EXTT20=
EXTT21=
PLAYORDER=
